<?xml version="1.0" encoding="utf-8"?>
<!-- Generator: Adobe Illustrator 16.0.0, SVG Export Plug-In . SVG Version: 6.00 Build 0)  -->
<!DOCTYPE svg PUBLIC "-//W3C//DTD SVG 1.1//EN" "http://www.w3.org/Graphics/SVG/1.1/DTD/svg11.dtd">
<svg version="1.1" id="Layer_1" xmlns="http://www.w3.org/2000/svg" xmlns:xlink="http://www.w3.org/1999/xlink" x="0px" y="0px"
	 width="400px" height="400px" viewBox="0 0 400 400" enable-background="new 0 0 400 400" xml:space="preserve">
<rect fill="#D9CBA2" width="400" height="400"/>
<g>
	<path fill="#7D2101" d="M375.092,253.025c0-5.004-4.096-9.105-9.105-9.105h-15.148c-2.373-11.703-6.973-22.586-13.357-32.204
		l10.732-10.732c3.541-3.548,3.541-9.331-0.008-12.872l-12.865-12.872c-3.547-3.541-9.338-3.541-12.871,0l-10.732,10.726
		c-9.611-6.378-20.502-10.985-32.204-13.351v-15.162c0-5.011-4.095-9.105-9.106-9.105l-18.197,0.007
		c-5.01,0-9.105,4.095-9.105,9.099v15.162c-11.703,2.365-22.586,6.973-32.203,13.351l-10.74-10.726
		c-3.533-3.548-9.33-3.541-12.871,0l-12.865,12.865c-3.541,3.548-3.541,9.331,0,12.879l10.725,10.726
		c-6.377,9.618-10.998,20.508-13.363,32.218h-15.147c-5.013,0-9.106,4.095-9.106,9.099v18.204c0.006,5.004,4.102,9.099,9.106,9.099
		h15.147c2.365,11.71,6.979,22.6,13.363,32.218l-10.725,10.719c-3.541,3.548-3.541,9.338,0,12.872l12.871,12.872
		c3.541,3.541,9.338,3.541,12.873,0l10.725-10.726c9.62,6.385,20.508,10.992,32.211,13.364v15.148c0,5.011,4.096,9.099,9.105,9.099
		h18.197c5.012,0,9.106-4.095,9.106-9.099v-15.155c11.711-2.365,22.593-6.979,32.211-13.357l10.726,10.719
		c3.541,3.548,9.33,3.541,12.879,0l12.857-12.865c3.541-3.548,3.541-9.338,0-12.879l-10.719-10.719
		c6.379-9.618,10.979-20.501,13.352-32.211h15.155c5.011,0,9.104-4.095,9.104-9.099L375.092,253.025z M261.32,310.481
		c-26.706,0-48.357-21.656-48.357-48.357c0.008-26.708,21.651-48.357,48.357-48.351c26.709-0.007,48.352,21.649,48.352,48.351
		C309.678,288.832,288.035,310.481,261.32,310.481z"/>
	<path fill="#7D2101" d="M162.645,190.189l-4.826-11.587c7.908-5.353,14.867-12.229,20.371-20.433l11.6,4.771
		c3.836,1.579,8.258-0.267,9.838-4.095l5.734-13.945c1.58-3.821-0.266-8.251-4.102-9.83l-11.594-4.778
		c1.881-9.7,1.777-19.482-0.068-28.861l11.594-4.833c3.822-1.593,5.646-6.022,4.055-9.851l-5.796-13.904
		c-1.595-3.828-6.024-5.655-9.853-4.061l-11.594,4.833c-5.345-7.911-12.229-14.88-20.439-20.376l4.785-11.604
		c1.58-3.835-0.266-8.261-4.102-9.84l-13.932-5.729c-3.834-1.579-8.258,0.263-9.836,4.095l-4.779,11.601
		c-9.707-1.876-19.488-1.784-28.861,0.072l-4.832-11.601c-1.594-3.825-6.023-5.65-9.851-4.061L72.252,31.97
		c-3.828,1.593-5.652,6.033-4.061,9.854l4.834,11.594c-7.924,5.346-14.889,12.229-20.393,20.445l-11.594-4.778
		c-3.834-1.578-8.257,0.267-9.836,4.095l-5.736,13.938c-1.578,3.828,0.268,8.251,4.102,9.837l11.589,4.771
		c-1.873,9.707-1.778,19.496,0.073,28.868l-11.586,4.826c-3.828,1.6-5.653,6.029-4.06,9.857l5.796,13.904
		c1.6,3.821,6.029,5.653,9.85,4.054l11.595-4.826c5.353,7.916,12.229,14.882,20.446,20.392l-4.778,11.587
		c-1.579,3.835,0.267,8.258,4.095,9.83l13.938,5.735c3.828,1.579,8.252-0.26,9.83-4.095l4.779-11.594
		c9.699,1.88,19.496,1.784,28.867-0.075l4.826,11.587c1.594,3.828,6.023,5.653,9.852,4.061l13.905-5.79
		C162.412,198.447,164.236,194.018,162.645,190.189z M152.418,131.25c-8.408,20.439-31.809,30.188-52.248,21.772
		c-20.439-8.422-30.188-31.821-21.766-52.254c8.422-20.446,31.814-30.194,52.248-21.766
		C151.098,87.411,160.84,110.817,152.418,131.25z"/>
</g>
<g>
</g>
<g>
</g>
<g>
</g>
<g>
</g>
<g>
</g>
<g>
</g>
<g>
</g>
<g>
</g>
<g>
</g>
<g>
</g>
<g>
</g>
<g>
</g>
<g>
</g>
<g>
</g>
<g>
</g>
</svg>
